<?xml version="1.0" standalone="no"?>
<!DOCTYPE svg PUBLIC "-//W3C//DTD SVG 20010904//EN"
 "http://www.w3.org/TR/2001/REC-SVG-20010904/DTD/svg10.dtd">
<svg version="1.0" xmlns="http://www.w3.org/2000/svg"
 width="50.000000pt" height="50.000000pt" viewBox="0 0 50.000000 50.000000"
 preserveAspectRatio="xMidYMid meet">

<g transform="translate(0.000000,50.000000) scale(0.100000,-0.100000)"
fill="#000000" stroke="none">
<path d="M70 250 l0 -230 180 0 180 0 0 168 0 168 -63 62 -63 62 -117 0 -117
0 0 -230z m220 150 l0 -60 60 0 60 0 0 -150 0 -150 -160 0 -160 0 0 210 0 210
100 0 100 0 0 -60z m65 0 l39 -40 -42 0 -42 0 0 40 c0 22 1 40 3 40 2 0 21
-18 42 -40z"/>
<path d="M340 248 c-5 -13 -21 -36 -35 -53 l-26 -30 -22 25 c-12 14 -29 36
-38 50 l-15 24 -43 -43 c-32 -32 -40 -46 -32 -54 9 -9 18 -4 37 21 14 17 30
32 35 32 5 0 24 -20 41 -45 36 -51 45 -54 57 -22 5 12 25 39 45 60 21 20 34
42 31 47 -10 17 -25 11 -35 -12z"/>
</g>
</svg>
