<?xml version="1.0" standalone="no"?>
<!DOCTYPE svg PUBLIC "-//W3C//DTD SVG 20010904//EN"
 "http://www.w3.org/TR/2001/REC-SVG-20010904/DTD/svg10.dtd">
<svg version="1.0" xmlns="http://www.w3.org/2000/svg"
 width="50.000000pt" height="50.000000pt" viewBox="0 0 50.000000 50.000000"
 preserveAspectRatio="xMidYMid meet">

<g transform="translate(0.000000,50.000000) scale(0.100000,-0.100000)"
fill="#000000" stroke="none">
<path d="M0 310 c0 -100 4 -160 10 -160 6 0 10 57 10 150 l0 150 215 0 c137 0
215 4 215 10 0 6 -82 10 -225 10 l-225 0 0 -160z"/>
<path d="M40 270 l0 -160 129 0 129 0 12 -30 c14 -33 55 -60 90 -60 60 0 110
62 95 117 -5 16 -10 88 -12 161 l-4 132 -220 0 -219 0 0 -160z m420 128 c0
-19 -177 -168 -199 -168 -19 0 -201 154 -201 171 0 5 81 9 200 9 153 0 200 -3
200 -12z m-295 -127 c4 -7 -21 -29 -92 -84 -10 -7 -13 11 -13 83 l0 92 50 -42
c27 -23 52 -45 55 -49z m295 9 c0 -77 -1 -80 -19 -70 -46 24 -111 -1 -131 -50
l-12 -30 -119 0 c-66 0 -119 4 -119 9 0 5 21 27 48 48 88 72 80 68 105 44 40
-37 67 -28 158 53 46 41 85 75 87 75 1 1 2 -35 2 -79z m-5 -105 c50 -49 15
-135 -55 -135 -41 0 -80 39 -80 80 0 41 39 80 80 80 19 0 40 -9 55 -25z"/>
<path d="M390 155 c0 -20 -5 -25 -25 -25 -14 0 -25 -4 -25 -10 0 -5 11 -10 25
-10 20 0 25 -5 25 -25 0 -14 5 -25 10 -25 6 0 10 11 10 25 0 20 5 25 25 25 14
0 25 5 25 10 0 6 -11 10 -25 10 -20 0 -25 5 -25 25 0 14 -4 25 -10 25 -5 0
-10 -11 -10 -25z"/>
</g>
</svg>
